<?xml version="1.0" standalone="no"?>
<!DOCTYPE svg PUBLIC "-//W3C//DTD SVG 20010904//EN"
 "http://www.w3.org/TR/2001/REC-SVG-20010904/DTD/svg10.dtd">
<svg version="1.0" xmlns="http://www.w3.org/2000/svg"
 width="537.000000pt" height="537.000000pt" viewBox="0 0 537.000000 537.000000"
 preserveAspectRatio="xMidYMid meet">
<metadata>
Created by potrace 1.11, written by Peter Selinger 2001-2013
</metadata>
<g transform="translate(0.000000,537.000000) scale(0.100000,-0.100000)"
fill="#000000" stroke="none">
<path d="M1071 4965 c-11 -20 -21 -38 -21 -40 0 -2 -28 -52 -61 -112 -69 -121
-200 -316 -293 -438 -213 -275 -291 -448 -363 -795 -12 -61 -17 -226 -9 -307
10 -106 14 -550 4 -523 -9 25 -70 332 -98 490 -12 69 -25 145 -30 170 -18 90
-69 367 -81 433 -6 37 -13 66 -15 64 -6 -6 -29 -101 -43 -177 -7 -36 -17 -87
-22 -115 -38 -195 -51 -645 -24 -847 41 -314 145 -577 319 -812 65 -88 112
-130 223 -203 49 -31 89 -60 91 -64 3 -8 81 -109 122 -159 39 -47 130 -142
130 -135 0 3 32 -21 70 -55 39 -33 89 -72 111 -87 21 -14 37 -28 35 -31 -6 -5
-253 145 -262 159 -3 6 -38 35 -78 64 -159 120 -194 149 -269 218 -82 76 -255
264 -328 357 -83 106 -96 112 -60 28 79 -184 234 -452 279 -484 10 -7 31 -32
47 -56 149 -223 501 -517 806 -673 371 -190 692 -242 930 -149 l47 17 145 -70
c80 -39 161 -82 180 -95 l36 -24 -55 -42 c-30 -23 -54 -46 -54 -51 0 -17 52
-51 79 -51 14 0 37 9 51 21 14 11 37 28 51 39 l27 20 48 -40 c52 -43 86 -50
122 -24 35 24 27 50 -28 91 l-49 37 35 24 c20 13 101 56 181 95 l145 70 47
-17 c238 -93 558 -41 933 150 252 130 495 321 738 581 67 72 71 77 117 152 14
24 36 55 49 68 12 13 27 37 34 53 7 17 16 30 21 30 5 0 9 5 9 11 0 6 8 23 19
37 47 67 165 315 158 335 -1 5 -36 -32 -77 -84 -40 -52 -83 -102 -94 -112 -12
-10 -14 -15 -6 -11 8 4 -52 -63 -134 -149 -82 -86 -152 -157 -157 -157 -4 0
-35 -19 -67 -42 -33 -24 -110 -80 -173 -125 -63 -45 -127 -92 -143 -105 -37
-29 -168 -108 -180 -108 -9 0 90 75 151 113 76 48 240 223 302 321 22 35 51
62 108 98 92 59 224 192 295 297 136 200 229 460 263 734 37 298 5 762 -74
1090 -10 41 -21 60 -21 36 0 -8 -12 -72 -26 -144 -52 -275 -81 -431 -88 -485
-9 -67 -77 -415 -91 -465 l-13 -50 -2 40 c-3 75 -10 210 -14 250 -4 38 9 144
20 175 11 29 3 276 -11 360 -29 169 -67 292 -131 428 -60 128 -101 195 -218
352 -174 235 -259 366 -361 555 -64 119 -65 114 -21 -92 53 -246 114 -427 241
-718 81 -185 126 -303 276 -725 28 -80 71 -185 95 -235 40 -84 44 -97 50 -195
3 -58 2 -157 -2 -220 l-8 -115 -12 85 c-22 160 -71 306 -147 440 -68 122 -133
197 -262 305 -53 45 -71 55 -73 43 -2 -10 1 -26 7 -36 15 -29 59 -165 86 -267
59 -230 75 -452 68 -975 -3 -244 -1 -409 6 -449 l10 -64 -56 -71 c-80 -102
-200 -216 -315 -302 -143 -106 -153 -108 -62 -11 149 157 235 290 284 442 19
58 23 91 23 191 0 170 -28 275 -48 182 -14 -62 -77 -204 -128 -288 -117 -190
-309 -358 -894 -783 -82 -60 -192 -148 -244 -196 -77 -72 -109 -95 -179 -125
-47 -21 -141 -66 -209 -102 l-124 -64 -161 80 c-89 44 -167 84 -173 90 -7 6
-13 8 -13 5 0 -17 -95 48 -161 109 -89 83 -184 156 -489 376 -95 68 -255 192
-335 260 -79 66 -232 222 -276 280 -58 76 -140 239 -166 327 -10 35 -21 63
-24 63 -13 0 -30 -88 -34 -178 -7 -142 33 -296 104 -407 41 -64 148 -193 240
-287 47 -49 81 -88 78 -88 -24 0 -256 169 -318 232 -69 69 -174 189 -202 231
-19 28 -24 45 -19 65 4 15 6 198 4 407 -5 679 25 957 138 1266 16 46 30 87 30
92 0 14 -81 -48 -155 -121 -174 -167 -280 -373 -324 -630 l-18 -107 -7 115
c-13 206 2 297 79 465 15 33 54 135 86 227 84 241 182 501 240 636 123 284
174 424 223 607 22 85 67 307 62 312 -2 2 -13 -12 -25 -32z m3966 -2237 c-3
-8 -6 -5 -6 6 -1 11 2 17 5 13 3 -3 4 -12 1 -19z m-10 -60 c-3 -8 -6 -5 -6 6
-1 11 2 17 5 13 3 -3 4 -12 1 -19z"/>
<path d="M2049 4523 c-11 -3 -20 -24 -28 -66 -14 -70 -59 -170 -94 -207 -97
-102 -174 -138 -308 -147 -72 -5 -97 -2 -152 16 -61 21 -123 58 -171 103 -11
10 -27 16 -35 14 -9 -3 -35 -10 -58 -17 l-43 -12 0 -663 0 -663 46 -113 c51
-126 181 -383 252 -498 144 -232 368 -518 495 -629 16 -14 39 -37 50 -50 50
-55 175 -168 292 -261 89 -73 343 -245 376 -255 25 -8 108 40 284 166 143 101
495 414 495 439 0 4 8 14 17 21 14 12 16 12 8 0 -5 -10 -4 -12 4 -7 6 4 9 11
7 15 -3 4 25 40 62 79 37 40 66 72 63 72 -2 0 21 28 51 63 185 214 394 568
517 880 l31 78 0 663 0 663 -42 12 c-24 7 -50 14 -59 17 -8 2 -31 -10 -50 -27
-19 -17 -68 -48 -109 -68 -65 -31 -86 -36 -162 -39 -131 -6 -224 30 -320 124
-48 47 -113 155 -101 168 4 3 1 6 -5 6 -6 0 -14 22 -18 50 -11 85 31 80 -666
79 -337 -1 -620 -3 -629 -6z m1142 -210 c72 -192 232 -337 429 -388 88 -23
261 -17 341 12 l56 21 2 -519 2 -518 -36 -87 c-141 -342 -337 -652 -590 -938
-151 -170 -295 -306 -485 -457 -95 -75 -214 -159 -225 -159 -9 0 -145 94 -180
124 -16 14 -59 49 -95 77 -433 340 -789 805 -1010 1320 l-50 116 0 520 0 521
75 -24 c90 -29 227 -32 320 -9 191 48 364 203 434 388 l11 27 495 0 495 0 11
-27z"/>
</g>
</svg>
